<svg xmlns="http://www.w3.org/2000/svg" viewBox="0 0 301.1 249.63"><defs><style>.cls-1{fill:#ccab96;}.cls-2{fill:#894846;}.cls-3{fill:#dbb89e;}.cls-4{fill:#dfc0a8;}.cls-5{fill:#6b855a;}.cls-6{fill:#ccb3a2;}.cls-7{fill:#8f524f;}.cls-8{fill:#80888a;}.cls-9{fill:#cecfd0;}</style></defs><title>beer_box</title><g id="Layer_2" data-name="Layer 2"><g id="Layer_1-2" data-name="Layer 1"><path class="cls-1" d="M300.13,163.16c1.49,4,.37,5.75-3.83,6a31,31,0,0,1-4.72,0c-1.82-.18-2.38.74-2.4,2.28,0,2.23,0,4.46,0,6.7l-33.71,0c0-1.91.12-3.82.13-5.74,0-3.3,0-3.3-3.19-3.3H203c-4,0-8,0-12,0-1.34,0-2,.36-1.94,1.83.11,2.41.11,4.82.15,7.23-2.18.06-4.38.33-6.51-.42,0-2.25-.1-4.5-.05-6.74,0-1.39-.47-1.9-1.89-1.9q-31.38,0-62.74,0c-1.33,0-2,.35-2,1.82.1,2.41.11,4.83.15,7.24l-7.14,0c0-2.41,0-4.83.15-7.24.06-1.44-.58-1.85-1.94-1.85q-31.35,0-62.71,0c-1.31,0-2,.3-2,1.8.11,2.41.1,4.82.13,7.24l-27.88.08c-.66,0-1.34.05-1.81-.58a41.56,41.56,0,0,1,0-5.47c.34-2.68-.8-3.38-3.22-3.09a31.08,31.08,0,0,1-4,0c-3.86,0-4.6-1.11-3.33-4.92l6.74,0H284.56c1.74,0,3.47.2,5.2.34C293.26,164.83,296.9,165.25,300.13,163.16Z"/><path class="cls-2" d="M90.43,13.66c.48,8,1,16.06,1.44,24.09.62,11.94,1.16,23.88,1.74,35.82a3.26,3.26,0,0,0,.44,2.14l.24,3.46a18,18,0,0,0,5.36,15c1.06,1.08,2.51,2.05,1.88,4l-13.44-.38c.27-1.47-.62-2.52-1.35-3.62a20.69,20.69,0,0,1-3.14-7.78c-.84-4.49-.7-9.08-.9-13.61-.42-9.26-.92-18.51-1.61-27.76A40.62,40.62,0,0,0,76,28.59c-1.33-2.44-3.4-2.77-5.93-1.68-3.23,1.4-2.75,4.41-2.89,6.83-.47,8.68-.69,17.36-1.5,26-.75,8-.57,16.15-1.17,24.2-.29,4-1.13,8-3.81,11.34A4.17,4.17,0,0,0,60,97.89c-3.43.45-6.88.09-10.32.22-.34-1.07.62-1.45,1.13-2,3-3.44,6.27-6.84,6.63-11.71.5-6.88.75-13.77,1.11-20.65q1-17.79,2-35.58c.28-4.8.6-9.6.9-14.4a14.64,14.64,0,0,0,7.51,1,1.19,1.19,0,0,1,.48.13c3.65,1.5,7.45.15,11.19.46C83.85,15.64,87.45,15.65,90.43,13.66Z"/><path class="cls-2" d="M132.41,55.6l.57-7.88c2.14-1.64,1-3.62.58-5.53L133.35,40l.1-2.36c1.49-2.61.78-5.35.47-8.06.07-1.82.15-3.65.23-5.47.69-1,.41-2.06.21-3.11.09-1.63.18-3.25.26-4.88.71-.72.28-1.65.45-2.46,1.23,0,1.89,1.52,3.13,1.32,4.1-.66,8.13,1.17,12.23.23,1.35-.31,2.67.89,4.14.22,2.89-1.3,6.3,0,9.12-1.74.89,9,1,18.06,1.56,27.09.68,11.6,1.3,23.21,1.94,34.81l.38,3.58c-.66,6.4,1.54,11.68,6.19,16,.83.78,1.73,1.58,1.69,2.9l-13.86-.34a3.14,3.14,0,0,0-.71-2.54c-2.3-2.16-2.88-5.18-3.75-8-1.46-4.74-.5-9.72-.92-14.59-.87-10.13-.63-20.36-2.18-30.44a35.46,35.46,0,0,0-5-14.13,4.72,4.72,0,0,0-8.33,1.71,37.33,37.33,0,0,0-.66,5.42c.05,6.38-.49,12.74-.9,19.1-.53,8.27-.71,16.56-1.06,24.84-.24,5.76-1,11.39-4.35,16.3a3.72,3.72,0,0,0-.64,2.3l-9.92.37c-.31-1.63,1-2.35,1.89-3.27,4.18-4.42,6.59-9.47,5.79-15.71l.14-1a1,1,0,0,0,.2-1.47,2.65,2.65,0,0,0,.2-2.1c0-1.3.07-2.6.11-3.9.92-2,.5-4,.45-6.07l.27-6.43A3,3,0,0,0,132.41,55.6Z"/><path class="cls-2" d="M239.63,62.69c0,.3.07.6.11.9-.28,2.06.32,4.06.42,6.1-.33,3.17.54,6.3.38,9.44a20.17,20.17,0,0,0,6.72,16.5c.69.65,1.62,1.28,1.22,2.51l-6.4-.2c-1.34-1.54-3.11-.43-4.65-.72-.94-.18-2,.23-2.73-.8-2.56-3.73-4.71-7.6-4.63-12.32.07-3.82-.47-7.61-.6-11.42-.22-6.85-1-13.68-1.37-20.53-.18-2.89.13-5.81-.53-8.67-1.19-5.16-2-10.44-5.08-14.94-1.24-1.8-2.92-2.93-5.09-2.15s-3.85,2.28-3.78,4.75c.11,4.32-.57,8.6-.64,12.92-.07,3.76-.36,7.54-.5,11.33-.3,8.34-.92,16.68-1.41,25-.32,5.57-1.1,11-4.74,15.57A2.93,2.93,0,0,1,204,97.23c-1.14.13-2.52-.7-3.4.72l-3.94.22c-.45-1.09.29-1.66.93-2.33,4.42-4.67,7.37-9.91,6.49-16.65l.3-.49c1.21-.85,1-1.73,0-2.62l.27-3.89a.76.76,0,0,0,.08-1.13l.25-6.87c.88-1.3.5-2.72.35-4.11l.31-4.41c.51-3.46,1.44-6.89.58-10.43a60.21,60.21,0,0,1,.4-9.1c.73-1,.46-2.07.19-3.14,0-.94.08-1.88.13-2.83,1.12-3,.49-6,.5-9.06.05-1.82.11-3.65.16-5.47.7-.54.36-1.33.49-2,1.33,0,2.13,1.66,3.36,1.42,3.94-.75,7.82,1.26,11.72.13,1.26-.36,2.32,1.23,3.24.71,3.32-1.9,7.27-.45,10.54-2.25.42,7.47.82,15,1.24,22.42.06,1,.17,2,.25,3a1.88,1.88,0,0,0,.11,2.14l.24,6.39c-.17,1.56-.42,3.12.33,4.61q.13,3.18.28,6.37A5.72,5.72,0,0,0,239.63,62.69Z"/><path class="cls-1" d="M299.29,245.74c.58,2.16-.47,3.14-2.49,3.34-.83.08-1.67,0-2.5,0q-138.06,0-276.12,0c-4.8,0-9.6,1.19-14.42.09C1,248.54,0,247.34.39,244.74c.83-.19.52-1.24,1.18-1.55,1.18,1.48,2.9,1.35,4.51,1.5,3.91.37,7.78-.5,11.68-.5H298.08C298.74,244.5,298.42,245.58,299.29,245.74Z"/><path class="cls-3" d="M300.13,163.16c-3.23,2.09-6.87,1.67-10.37,1.38-1.73-.14-3.46-.34-5.2-.34H9.25l-6.74,0c.2-2.47,1.32-4.95-.06-7.42l11.12-.05c-.38,2.23,1.19,2.74,2.81,2.93,2.55.3,5.12.36,7.67.57,4.17.34,8.28-.52,12.43-.52q122.79,0,245.57,0a14.87,14.87,0,0,0,2.5,0c1.65-.29,3.07-.91,3-3,2.4,0,4.8.05,7.2,0,1.18,0,2.51.49,3.5-.66C299.65,158.19,299.62,160.75,300.13,163.16Z"/><path class="cls-3" d="M298.08,244.19H17.76c-3.9,0-7.77.87-11.68.5-1.61-.15-3.33,0-4.51-1.5l-.42-1c.05-.34.1-.68.14-1,2.06-.92.73-3.18,1.78-4.5h10.5c0,2.06,1.4,2.6,3,3,4.12,1,8.24.05,12.36.05q118.84-.09,237.67,0a17.31,17.31,0,0,1,2.5.1,51.7,51.7,0,0,0,15.61-.2c1.36-.22,2.95-.9,2.83-2.9,3.53.28,7.12-.64,10.6.56l-.6,2c.09.81-.3,1.71.39,2.43l.18.92Z"/><path class="cls-3" d="M.33,193.22c0-.51,0-1,0-1.52,1.59-1.89.38-4.09.68-6.12l0-1.88c1.37-1.55,3.2-1.51,5-1.51H294.36c4.83,0,4.83,0,6.18,4-.05.67-.09,1.34-.14,2-.95.17-.83.89-.81,1.56.05,1.44.24,2.91-.92,4.07-.58-.82-1.46-.6-2.25-.61-2.78,0-5.57,0-8.35,0,.77-4.54-3.32-7.61-7.59-7.59-40.3.16-80.6.09-120.9.09H19.7c-4.49,0-5.63,1.13-5.63,5.48,0,.67,0,1.34,0,2Z"/><path class="cls-3" d="M300.11,104.21c.16,2,.71,4,.45,6-.82.7-.37,1.65-.48,2.49-4.36-.34-8.67.68-13,.49.12-.74.24-1.47.34-2.2.3-2-.83-4.65-2.23-4.71-2.07-.1-4.08-.62-6.18-.61q-125.24.06-250.46,0c-1.32,0-2.65-.27-3.94-.33-6.88-.31-12.32.59-11.51,7.83l-11.18,0a2,2,0,0,1-.8-2.06c.62-.52.6-1,0-1.49-.14-.85-.27-1.69-.4-2.54a4.76,4.76,0,0,0,.4-1.13c.25-3.06,1-3.82,4.22-3.82q145.5,0,291,0C298,102.17,299.38,102.51,300.11,104.21Z"/><path class="cls-4" d="M300.11,104.21c-.73-1.7-2.09-2-3.82-2q-145.52,0-291,0c-3.18,0-4,.76-4.22,3.82a4.76,4.76,0,0,1-.4,1.13,9.51,9.51,0,0,1-.19-6.46C.84,99.2,2,98.38,3.75,98.13a45.12,45.12,0,0,1,7.15-.34c1.28,0,1.73-.49,1.78-1.75.07-1.62-.43-3.3.36-4.86,1,.87.36,2,.54,3,.52,1.39-1.46,4,2,4q17.09-.06,34.17-.08c3.44-.13,6.89.23,10.32-.22,8.79.48,17.58.08,26.37.21a2.43,2.43,0,0,0,1.68-.31l13.44.38,21.63,0,9.92-.37a5.88,5.88,0,0,0,2.69.32c7.8,0,15.6,0,23.4,0a3.89,3.89,0,0,0,2.42-.3l13.87.34,21.16,0,3.94-.22c10.61,0,21.23.12,31.84.14,3.22,0,6.45-.1,9.68-.15l6.4.2q19.1,0,38.2.06a4.77,4.77,0,0,0,2.41-.51c2.4,1,4.91.36,7.37.47,3,.14,3.43.4,3.57,3.44C300.07,102.46,300.82,103.33,300.11,104.21Z"/><path class="cls-4" d="M300.54,186.18c-1.35-4-1.35-4-6.18-4H6.09c-1.84,0-3.67,0-5,1.51-.94-3.49,0-5.33,3.33-5.72,2.85-.33,5.74-.25,8.61-.36.47.63,1.15.58,1.81.58l27.88-.08,66.34,0,7.14,0,64.37,0c.72,0,1.51.19,2.12-.45,2.13.75,4.33.48,6.51.42h66.32l33.71,0,6.72,0c3.62,0,4.93,1.24,5.07,4.9C301,184.11,301.39,185.26,300.54,186.18Z"/><path class="cls-1" d="M49.72,98.11q-17.08,0-34.17.08c-3.43,0-1.45-2.59-2-4h17.6c4.9,0,4.9,0,4.89-5,0-3,.75-6.2-2.6-8.1.15-4.83.15-4.83,4.91-4.9,3,0,3.18-.21,3.17-3.31,0-2-.49-4.09,0-6.17.42-1.86,1-3.14,3.28-2.57,1.57.39,3.14-.1,4.68-.38,3.05-.55,6.08,0,9.11,0-.36,6.88-.61,13.77-1.11,20.65-.36,4.87-3.59,8.27-6.63,11.71C50.34,96.66,49.38,97,49.72,98.11Z"/><path class="cls-1" d="M289.09,97.69a4.77,4.77,0,0,1-2.41.51q-19.1,0-38.2-.06c.4-1.23-.53-1.86-1.22-2.51a20.17,20.17,0,0,1-6.72-16.5c.16-3.14-.71-6.27-.38-9.44,4.69.22,9.38-.06,14.1.33,3.12.26,5.29.43,5.22,4.14.1.58,0,1.23.59,1.65,2.67,2.69,6,3.29,9.58,2.9l.09,1.79c-.2.72-.39,1.51-1.29,1.61-2.12.23-2.35,1.74-2.38,3.39,0,1.23,0,2.47,0,3.7,0,.5,0,1,0,1.49,0,3.5,0,3.5,3.6,3.51H289Z"/><path class="cls-5" d="M90.43,13.66c-3,2-6.58,2-9.73,1.72-3.74-.31-7.54,1-11.19-.46a1.19,1.19,0,0,0-.48-.13,14.64,14.64,0,0,1-7.51-1c-2.82-2.93-1.5-6.2-.81-9.45a3.63,3.63,0,0,1,3.07-3.17,67.67,67.67,0,0,1,24.33,0,3.67,3.67,0,0,1,3.12,3.1C92.05,7.49,93.29,10.71,90.43,13.66Z"/><path class="cls-5" d="M163.69,13.71c-2.82,1.71-6.23.44-9.12,1.74-1.47.67-2.79-.53-4.14-.22-4.1.94-8.13-.89-12.23-.23-1.24.2-1.9-1.31-3.13-1.32a2.17,2.17,0,0,0-.36,0c-2.9-2.94-1.51-6.19-.77-9.45A3.81,3.81,0,0,1,137.3,1a69.48,69.48,0,0,1,23.81,0,3.78,3.78,0,0,1,3.4,3.45,24.25,24.25,0,0,0,1.05,4.61C166.34,11.29,163.85,12,163.69,13.71Z"/><path class="cls-5" d="M237,13.65c-3.27,1.8-7.22.35-10.54,2.25-.92.52-2-1.07-3.24-.71-3.9,1.13-7.78-.88-11.72-.13-1.23.24-2-1.4-3.36-1.42a1.77,1.77,0,0,0-.62-1.38,3,3,0,0,1-1.35-3.4c1.14-7.36,2-8.12,9.48-8.57A80.77,80.77,0,0,1,233.72.9c2.47.41,3.89,1.7,4.15,4.21a1,1,0,0,0,0,.24C238.61,8.23,239.45,11.13,237,13.65Z"/><path class="cls-1" d="M1.9,113.24l11.18,0c4.56-.13,9.12-.1,13.69-.37,7-.43,14.07-.19,21.1-.1s14-.15,20.94.39c8,.61,16.11-.15,24.19.49,7.27.59,14.61.42,21.92.62.62,0,1.54-.45,1.89.87-6.35.37-12.61.8-18.88,1.08-7,.32-14,.31-20.93.36-21.14.15-42.29.77-63.42-.32a3.42,3.42,0,0,1-2.63.43c-2.26-.7-4.58-.34-6.87-.45C3.72,114.94,2.15,114.58,1.9,113.24Z"/><path class="cls-1" d="M288.07,193.19c2.78,0,5.57,0,8.35,0,.79,0,1.67-.21,2.25.61-.5.82-1.56,1.26-1.62,2.38-3.17,0-6.29.84-9.48.51-26.65-.18-53.29.35-79.94-.46-7.22-.22-14.44-.9-21.69-.57-.6,0-1.58.29-1.65-.61-.1-1.2,1-.82,1.66-.84,5.14-.2,10.28-.13,15.44-.41,10-.55,20-.55,29.93-.59C250.24,193.14,269.15,193.19,288.07,193.19Z"/><path class="cls-3" d="M300.78,133.69c-.28,2.18,0,4.52-1.75,6.28-.53.52-.21,1,.07,1.53,1.76,3.54.93,7.29.72,11a2.73,2.73,0,0,1-1.83,2.21h-9.42c-.06-6.21-3.06-11.86-3.5-18,0-.66,0-1.33,0-2,4.19,0,8.38,0,12.57,0A4.42,4.42,0,0,0,300.78,133.69Z"/><path class="cls-3" d="M1.15,228.23c-.27-2,.45-4,.48-6A1.41,1.41,0,0,0,3,220.53a1.36,1.36,0,0,0-1.5-1.33.5.5,0,0,1-.05-.34,1,1,0,0,0-.43-1.17c0-.46,0-.91-.05-1.37l.06-1.62h14a14.54,14.54,0,0,0,.27,2.7,9.59,9.59,0,0,1-.15,5.36,33.14,33.14,0,0,0-2.63,11.94l-9,0a2.44,2.44,0,0,0-2-1.53c0-.45-.1-.89-.14-1.33C1.46,230.64,2,229.37,1.15,228.23Z"/><path class="cls-3" d="M298.07,214.69a9.33,9.33,0,0,0,.69,7.21c.84,1.62.56,3.65.19,5.41a16.27,16.27,0,0,0,.15,7.38H287.57a83,83,0,0,1,0-20Z"/><path class="cls-3" d="M2,154.67a18.28,18.28,0,0,0,.18-7.37,10.66,10.66,0,0,1,1-7.5c1-1.65,0-3.4-.11-5.11H13.57a13.79,13.79,0,0,1,.52,4.15c0,5.28,0,10.56-.51,15.83Z"/><path class="cls-1" d="M298.07,214.69h-10.5c-1.29-.18-2.06.23-2.14,1.66-.13,2.2-1.64,3.57-3.18,4.84a5.92,5.92,0,0,1-6.15.63c-1.89-.74-3.9-2.14-3.93-4.4,0-2.56-1.22-2.78-3.26-2.77-12.23.06-24.47,0-36.7,0-10,0-19.93-.87-29.91-.53-.48,0-1.2.28-1.38-.55.27-.48.71-.4,1.1-.41,6.56-.06,13.12-.29,19.67-.41,16.14-.3,32.29-.1,48.44-.11,1.14,0,2.15.1,3.06-1.09,2.81-3.69,7.29-3.9,10.5-.42a4.14,4.14,0,0,0,3.88,1.52l11.05,0A3.16,3.16,0,0,1,298.07,214.69Zm-19.4-4a4.8,4.8,0,0,0-5.11,4.94,4.91,4.91,0,0,0,5,5.09,4.72,4.72,0,0,0,5-4.7C283.63,212.74,281.75,210.7,278.67,210.67Z"/><path class="cls-3" d="M300.13,116.72c-1.69,3.25.5,6.24.68,9.37a28.82,28.82,0,0,1,0,6.63l-13.72,0c.73-5.56.78-11.07-1-16.47C290.73,116.93,295.44,116.62,300.13,116.72Z"/><path class="cls-1" d="M13.57,134.7H3.11a3,3,0,0,1-.58-2h11c2.35.17,4.2,0,5.86-2.4,2.54-3.63,8.82-3.2,10.81.58.86,1.63,1.79,1.84,3.29,1.84,10.49,0,21-.08,31.48,0,11.06.09,22.11.31,33.17.5.54,0,1.39-.39,1.57.75a5.08,5.08,0,0,1-1,.2q-10.83.15-21.67.41c-14.4.35-28.82.1-43.23.12-1.1,0-2.28-.31-2.82,1.31-1.25,3.75-3.19,5.17-6.64,5.19-3.26,0-5-1.42-6.4-5.37a1.57,1.57,0,0,0-1.7-1.13Zm6-.14a4.78,4.78,0,0,0,4.86,5.13,4.74,4.74,0,0,0,5.15-4.54c0-3.36-1.75-5.39-4.73-5.48C21.62,129.57,19.61,131.43,19.56,134.56Z"/><path class="cls-3" d="M1.69,198.19l-.18-.87c.65-.93,1.63-.6,2.48-.61,3.7,0,7.39,0,11.08,0-2.14,5.22-1.17,10.63-1,16l-13.56,0C-.22,210.9.16,209,.3,207.2c1.33-.6.6-1.74.7-2.66,0-.27,0-.55,0-.82.5-.28.63-.6.12-1l.66-2.52C3,199.47,3,198.79,1.69,198.19Z"/><path class="cls-1" d="M.52,212.71l13.56,0c2.37.22,4.31-.09,6.12-2.18,2.32-2.68,6.16-2.42,8.59.23a5.9,5.9,0,0,0,5,2c4.08-.14,8.16-.08,12.24,0q20.7.22,41.4.51c.59,0,1.32-.3,1.78.47-.43.78-1.17.49-1.76.48-13.47-.26-26.92.85-40.4.54-4.49-.11-9,0-13.48,0-1.26,0-2,.23-2.2,1.67a7.51,7.51,0,0,1-3,4.74c-2.13,1.7-4.61,1.47-6.88.73a4.56,4.56,0,0,1-3.41-4.47c.09-2.4-1.07-2.88-3-2.64H.57C.55,214,.53,213.37.52,212.71Zm19,3.19a4.81,4.81,0,0,0,5,4.8,4.76,4.76,0,0,0,5-5,4.82,4.82,0,0,0-5-5C21.47,210.67,19.56,212.65,19.55,215.9Z"/><path class="cls-3" d="M13.57,132.69h-11a19.55,19.55,0,0,1,1.55-16.51c2.29.11,4.61-.25,6.87.45a3.42,3.42,0,0,0,2.63-.43C14.7,121.7,13.54,127.2,13.57,132.69Z"/><path class="cls-3" d="M298.62,212.68l-11.05,0c.05-5.34-1.15-10.67,0-16,3.19.33,6.31-.53,9.48-.51A19.58,19.58,0,0,1,298.62,212.68Z"/><path class="cls-4" d="M33.47,81.09c3.35,1.9,2.56,5.14,2.6,8.1a7.11,7.11,0,0,0-2.49-.93c-4.1.13-8.22-1.2-12.3,0a7.09,7.09,0,0,1-4.14.34c-2-.68-3.1.13-4.1,1.6a9.65,9.65,0,0,1-.18-5.82c.42-2,1.71-3.31,4-2.46,1.48.55,2.87,0,4.13-.28C25.12,80.59,29.36,82.31,33.47,81.09Z"/><path class="cls-4" d="M266.06,89.2c0-1.23,0-2.47,0-3.7,0-1.65.26-3.16,2.38-3.39.9-.1,1.09-.89,1.29-1.61,1.65,3,4.35,1.31,6.31,1,3.48-.62,6.87.53,10.32-.14,1.53-.3,2.56,1,2.63,2.66.07,1.4,0,2.81,0,4.22-3.54-.06-7.14-.55-10.59-.32C274.3,88.17,270.1,88.14,266.06,89.2Z"/><path class="cls-1" d="M15.07,196.69c-3.69,0-7.38,0-11.08,0-.85,0-1.83-.32-2.48.61-.17-.18-.33-.37-.49-.56a.93.93,0,0,0-.68-1.11,4.11,4.11,0,0,1,0-2.43l13.75,0c3.07,0,6.15.45,9.19.42,9.41-.1,18.78.84,28.19.62.67,0,1.82-.38,1.88.62.07,1.3-1.2.83-1.9.82-10.82-.07-21.62.91-32.44.53A12.1,12.1,0,0,0,15.07,196.69Z"/><path class="cls-1" d="M300.13,116.72c-4.69-.1-9.4.21-14.06-.51-8.8-.08-17.59,0-26.38-.43-3.88-.21-7.75-.8-11.65-.63-.34,0-.65-.13-.61-.59.43-.55,1.06-.33,1.6-.35,5.8-.2,11.59.07,17.4-.42,6.85-.57,13.75-.44,20.63-.61,4.35.19,8.66-.83,13-.49l.72.07A5.21,5.21,0,0,1,300.13,116.72Z"/><path class="cls-3" d="M266.06,89.2c4-1.06,8.24-1,12.32-1.31,3.45-.23,7.05.26,10.59.32q0,3,0,6H269.67c-3.59,0-3.59,0-3.6-3.51C266.07,90.19,266.07,89.7,266.06,89.2Z"/><path class="cls-3" d="M13,90.21c1-1.47,2.1-2.28,4.1-1.6a7.09,7.09,0,0,0,4.14-.34c4.08-1.21,8.2.12,12.3,0a7.11,7.11,0,0,1,2.49.93c0,5,0,5-4.89,5H13.58c-.18-1,.42-2.16-.54-3Z"/><path class="cls-6" d="M131,78.16c0,.34-.09.67-.14,1H94.29l-.24-3.46c10.06,0,20.11.08,30.16-.08,2.38,0,5,.71,7.17-1a2.65,2.65,0,0,1-.2,2.1C130.42,77.08,130.42,77.58,131,78.16Z"/><path class="cls-6" d="M204.34,78.7l-.3.49H167.57l-.38-3.58q17,0,34,.1c1,0,2-.32,2.9.38Z"/><path class="cls-6" d="M259.48,74.16c.07-3.71-2.1-3.88-5.22-4.14-4.72-.39-9.41-.11-14.1-.33-.1-2-.7-4-.42-6.1,5.07.11,10.13-.19,15.23.48,4.69.62,5.1.55,5,5.51C259.92,71.1,260.46,72.72,259.48,74.16Z"/><path class="cls-1" d="M287.57,234.69H299.1a2.64,2.64,0,0,1-.93,2.57c-3.48-1.2-7.07-.28-10.6-.56-20.5-.08-41,.22-61.49-.51v-1C246.58,235.44,267.07,234.35,287.57,234.69Z"/><path class="cls-1" d="M2,154.67H13.58c21.66-.28,43.32.43,65,.52v.49c-2.09-.29-4.11.51-6.17.49-19.45-.22-38.88.87-58.33.51h-.5l-11.12.05C1.71,156.18,1.27,155.55,2,154.67Z"/><path class="cls-1" d="M288.57,154.69H298c.09.44.19.89.29,1.33-1,1.15-2.32.62-3.5.66-2.4.07-4.8,0-7.2,0-1.76.2-3.45-.44-5.18-.47-8.94-.16-17.9.28-26.83-.53,0-.16,0-.33,0-.49C266.58,155,277.59,155.7,288.57,154.69Z"/><path class="cls-1" d="M287.06,132.68l13.72,0v1a4.42,4.42,0,0,1-3.13,1c-4.19-.08-8.38,0-12.57,0l-1.45,0-.07-2h3.5Z"/><path class="cls-6" d="M269.65,78.71c-3.61.39-6.91-.21-9.58-2.9,2.45,0,4.9-.07,7.35-.07C269.45,75.73,270.19,76.75,269.65,78.71Z"/><path class="cls-7" d="M206.22,45.24c.86,3.54-.07,7-.58,10.43A52.05,52.05,0,0,1,206.22,45.24Z"/><path class="cls-8" d="M133.92,29.6c.31,2.71,1,5.45-.47,8.06C133.24,35,132.89,32.24,133.92,29.6Z"/><path class="cls-8" d="M207.44,21.11c0,3,.62,6.1-.5,9.06C206.75,27.13,206.39,24.08,207.44,21.11Z"/><path class="cls-4" d="M1.63,233.19a2.45,2.45,0,0,1,2,1.52,3.26,3.26,0,0,0-.52,2c-1,1.32.28,3.58-1.78,4.5.22-1.2.33-2.44.66-3.61A5,5,0,0,0,1.63,233.19Z"/><path class="cls-4" d="M1,185.58c-.3,2,.91,4.23-.68,6.12C.38,189.64-.67,187.46,1,185.58Z"/><path class="cls-6" d="M131.94,64.62c.05,2,.47,4.1-.45,6.07C131.12,68.63,130.61,66.55,131.94,64.62Z"/><path class="cls-7" d="M133.56,42.19c.45,1.91,1.56,3.89-.58,5.53-.41-1,0-2,.07-3.07C133.86,44,133.36,43,133.56,42.19Z"/><path class="cls-6" d="M239.12,52.19c-.75-1.49-.5-3-.33-4.61C240,49,239.62,50.61,239.12,52.19Z"/><path class="cls-8" d="M133.56,42.19c-.2.81.3,1.77-.51,2.46a6.5,6.5,0,0,1,.3-4.63Z"/><path class="cls-6" d="M205.33,60.08c.15,1.39.53,2.81-.35,4.11C204.59,62.77,204.22,61.36,205.33,60.08Z"/><path class="cls-6" d="M239.63,62.69a5.72,5.72,0,0,1-.23-4.13A4.17,4.17,0,0,1,239.63,62.69Z"/><path class="cls-4" d="M1.15,228.23c.81,1.14.31,2.41.34,3.63C.23,230.76.41,229.52,1.15,228.23Z"/><path class="cls-4" d="M1.54,219.2A1.36,1.36,0,0,1,3,220.53a1.41,1.41,0,0,1-1.41,1.67A3.54,3.54,0,0,0,1.54,219.2Z"/><path class="cls-8" d="M207.47,12.26a1.77,1.77,0,0,1,.62,1.38c-.13.67.21,1.46-.49,2A8.56,8.56,0,0,1,207.47,12.26Z"/><path class="cls-8" d="M134.36,21c.2,1.05.48,2.12-.21,3.11A3.3,3.3,0,0,1,134.36,21Z"/><path class="cls-8" d="M206.81,33c.27,1.07.54,2.14-.19,3.14A3.28,3.28,0,0,1,206.81,33Z"/><path class="cls-4" d="M298.08,244.19l.06-1.63c1.25.75,1.06,2,1.15,3.18C298.42,245.58,298.74,244.5,298.08,244.19Z"/><path class="cls-4" d="M298,241.64c-.69-.72-.3-1.62-.39-2.43C298.9,239.83,298.74,240.68,298,241.64Z"/><path class="cls-4" d="M1,204.54c-.1.92.63,2.06-.7,2.66C.14,206.21-.24,205.17,1,204.54Z"/><path class="cls-7" d="M204.34,78.7l-.27-2.61a.27.27,0,0,1,.31,0C205.31,77,205.55,77.85,204.34,78.7Z"/><path class="cls-6" d="M132.41,55.6a3,3,0,0,1-.2,2.59C131.48,57.27,131.39,56.39,132.41,55.6Z"/><path class="cls-4" d="M300.8,112.76l-.72-.07c.11-.84-.34-1.79.48-2.49C301.28,111,301,111.87,300.8,112.76Z"/><path class="cls-4" d="M1.15,242.22l.42,1c-.66.31-.35,1.36-1.18,1.55A2.71,2.71,0,0,1,1.15,242.22Z"/><path class="cls-6" d="M238.55,41.19a1.88,1.88,0,0,1-.11-2.14A1.43,1.43,0,0,1,238.55,41.19Z"/><path class="cls-4" d="M1.69,198.19c1.35.6,1.3,1.28.1,2C1.76,199.53,1.72,198.86,1.69,198.19Z"/><path class="cls-8" d="M134.71,13.66a2.17,2.17,0,0,1,.36,0c-.17.81.26,1.74-.45,2.46A4.2,4.2,0,0,1,134.71,13.66Z"/><path class="cls-4" d="M.57,214.69h.5L1,216.32C.21,216-.14,215.47.57,214.69Z"/><path class="cls-4" d="M1.06,109.69c.64.48.66,1,0,1.49A.88.88,0,0,1,1.06,109.69Z"/><path class="cls-4" d="M299.59,189.74c0-.67-.14-1.39.81-1.56C300.63,189,300.5,189.55,299.59,189.74Z"/><path class="cls-6" d="M204.73,71.06a.76.76,0,0,1-.08,1.13C204,71.76,204.28,71.4,204.73,71.06Z"/><path class="cls-4" d="M1.06,217.69a1,1,0,0,1,.43,1.17C1,218.6.41,218.37,1.06,217.69Z"/><path class="cls-4" d="M1.13,202.72c.51.4.38.72-.12,1C.62,203.33.64,203,1.13,202.72Z"/><path class="cls-4" d="M.34,195.65A.93.93,0,0,1,1,196.76C.47,196.59.06,196.34.34,195.65Z"/><path class="cls-5" d="M109,178.16l-66.34,0c0-2.42,0-4.83-.13-7.24-.07-1.5.66-1.81,2-1.8q31.37,0,62.71,0c1.36,0,2,.41,1.94,1.85C109.07,173.33,109.07,175.75,109,178.16Z"/><path class="cls-5" d="M182.65,177.71c-.61.64-1.4.45-2.12.45l-64.37,0c0-2.41,0-4.83-.15-7.24-.07-1.47.63-1.82,2-1.82q31.36,0,62.74,0c1.42,0,1.92.51,1.89,1.9C182.55,173.21,182.62,175.46,182.65,177.71Z"/><path class="cls-5" d="M255.48,178.13H189.16c0-2.41,0-4.82-.15-7.23-.07-1.47.6-1.85,1.94-1.83,4,.05,8,0,12,0h49.47c3.19,0,3.21,0,3.19,3.3C255.6,174.31,255.52,176.22,255.48,178.13Z"/><path class="cls-7" d="M88.09,97.79a2.43,2.43,0,0,1-1.68.31c-8.79-.13-17.58.27-26.37-.21a4.17,4.17,0,0,1,.64-2.58C63.36,92,64.2,88,64.49,84c.6-8,.42-16.17,1.17-24.2.81-8.67,1-17.35,1.5-26,.14-2.42-.34-5.43,2.89-6.83,2.53-1.09,4.6-.76,5.93,1.68A40.62,40.62,0,0,1,81.09,45c.69,9.25,1.19,18.5,1.61,27.76.2,4.53.06,9.12.9,13.61a20.69,20.69,0,0,0,3.14,7.78C87.47,95.27,88.36,96.32,88.09,97.79Z"/><path class="cls-1" d="M94.29,79.17h36.55c.8,6.24-1.61,11.29-5.79,15.71-.87.92-2.2,1.64-1.89,3.27l-21.63,0c.63-1.91-.82-2.88-1.88-4A18,18,0,0,1,94.29,79.17Z"/><path class="cls-7" d="M161.59,97.79a3.89,3.89,0,0,1-2.42.3c-7.8,0-15.6,0-23.4,0a5.88,5.88,0,0,1-2.69-.32,3.72,3.72,0,0,1,.64-2.3c3.32-4.91,4.11-10.54,4.35-16.3.35-8.28.53-16.57,1.06-24.84.41-6.36,1-12.72.9-19.1a37.33,37.33,0,0,1,.66-5.42A4.72,4.72,0,0,1,149,28.11a35.46,35.46,0,0,1,5,14.13c1.55,10.08,1.31,20.31,2.18,30.44.42,4.87-.54,9.85.92,14.59.87,2.8,1.45,5.82,3.75,8A3.14,3.14,0,0,1,161.59,97.79Z"/><path class="cls-1" d="M167.57,79.19H204c.88,6.74-2.07,12-6.49,16.65-.64.67-1.38,1.24-.93,2.33l-21.16,0c0-1.32-.87-2.12-1.7-2.9C169.11,90.87,166.91,85.59,167.57,79.19Z"/><path class="cls-1" d="M131,78.16c-.56-.58-.56-1.08.2-1.47A1,1,0,0,1,131,78.16Z"/><path class="cls-7" d="M242.08,97.94c-3.23,0-6.46.16-9.68.15-10.61,0-21.23-.09-31.84-.14.88-1.42,2.26-.59,3.4-.72A2.93,2.93,0,0,0,206.33,96c3.64-4.61,4.42-10,4.74-15.57.49-8.34,1.11-16.68,1.41-25,.14-3.79.43-7.57.5-11.33.07-4.32.75-8.6.64-12.92-.07-2.47,1.65-4,3.78-4.75s3.85.35,5.09,2.15c3.11,4.5,3.89,9.78,5.08,14.94.66,2.86.35,5.78.53,8.67.41,6.85,1.15,13.68,1.37,20.53.13,3.81.67,7.6.6,11.42-.08,4.72,2.07,8.59,4.63,12.32.71,1,1.79.62,2.73.8C239,97.51,240.74,96.4,242.08,97.94Z"/><path class="cls-4" d="M287.06,132.68h-2a6.44,6.44,0,0,0-6.44-4.88,5.92,5.92,0,0,0-6,3.69c-.53,1.3-1.63,1.21-2.72,1.21-5.58,0-11.16.08-16.73,0-12.64-.24-25.26.86-37.89.53-.5,0-1.2-.27-1.44.61.36.44.88.36,1.35.37,9.3.15,18.59-.08,27.9.41,8.22.44,16.48.15,24.72.06,2.42,0,4.56-.08,4.82,3.1,0,.35.44.68.71,1,3.54,4.1,8.82,3.16,11.68-2.07.44,6.14,3.44,11.79,3.5,18-11,1-22,.28-33,.51-1.39.21-2.93-.51-4.17.74,1.4,0,2.82.81,4.16-.25,8.93.81,17.89.37,26.83.53,1.73,0,3.42.67,5.18.47,0,2.06-1.38,2.68-3,3a14.87,14.87,0,0,1-2.5,0q-122.78,0-245.57,0c-4.15,0-8.26.86-12.43.52-2.55-.21-5.12-.27-7.67-.57-1.62-.19-3.19-.7-2.81-2.93h.5c19.45.36,38.88-.73,58.33-.51,2.06,0,4.08-.78,6.17-.49a3,3,0,0,0,3.18.19l0-.68H78.57c-21.67-.09-43.33-.8-65-.52.48-5.27.54-10.55.51-15.83a13.79,13.79,0,0,0-.52-4.15h2.75a1.57,1.57,0,0,1,1.7,1.13c1.4,3.95,3.14,5.38,6.4,5.37,3.45,0,5.39-1.44,6.64-5.19.54-1.62,1.72-1.31,2.82-1.31,14.41,0,28.83.23,43.23-.12q10.83-.27,21.67-.41a5.08,5.08,0,0,0,1-.2c-.18-1.14-1-.74-1.57-.75-11.06-.19-22.11-.41-33.17-.5-10.49-.09-21,0-31.48,0-1.5,0-2.43-.21-3.29-1.84-2-3.78-8.27-4.21-10.81-.58-1.66,2.37-3.51,2.57-5.86,2.4,0-5.49,1.13-11,0-16.48,21.13,1.09,42.28.47,63.42.32,7,0,14,0,20.93-.36,6.27-.28,12.53-.71,18.88-1.08-.35-1.32-1.27-.85-1.89-.87-7.31-.2-14.65,0-21.92-.62-8.08-.64-16.16.12-24.19-.49-7-.54-14-.3-20.94-.39s-14.09-.33-21.1.1c-4.57.27-9.13.24-13.69.37-.81-7.24,4.63-8.14,11.51-7.83,1.29.06,2.62.33,3.94.33q125.23,0,250.46,0c2.1,0,4.11.51,6.18.61,1.4.06,2.53,2.66,2.23,4.71-.1.73-.22,1.46-.34,2.2-6.88.17-13.78,0-20.63.61-5.81.49-11.6.22-17.4.42-.54,0-1.17-.2-1.6.35,0,.46.27.6.61.59,3.9-.17,7.77.42,11.65.63,8.79.46,17.58.35,26.38.43C287.84,121.61,287.79,127.12,287.06,132.68Zm-89.84,16c-.16-.52-.63-.42-1-.45-8-.49-16.08-.56-24.12-.93-12.37-.56-24.77.19-37.17-.47-6.86-.37-13.78,0-20.68.25-14,.46-28.12,0-42.17.63-4.73.21-9.46.34-14.18.53-.38,0-.86-.08-1,.81a81.73,81.73,0,0,0,8.77.54c10.37.29,20.75,1,31.11,1,21.39.09,42.78.53,64.17-.26,8.29-.31,16.61-.68,24.92-.63,3.57,0,7.11-.75,10.69-.52C196.8,149.18,197.2,149.15,197.22,148.66Zm-49.29-28c3.91,1.92,77.49,1.91,81.28,0Z"/><path class="cls-4" d="M226.08,236.19c20.49.73,41,.43,61.49.51.12,2-1.47,2.68-2.83,2.9a51.7,51.7,0,0,1-15.61.2,17.31,17.31,0,0,0-2.5-.1q-118.83,0-237.67,0c-4.12,0-8.24,1-12.36-.05-1.63-.4-3.07-.94-3-3,11.2.29,22.39-.84,33.59-.5a1,1,0,0,0,.25,0c.49-.11,1.24.28,1.33-.85-12.07-.54-24.14.48-36.17-.63a33.14,33.14,0,0,1,2.63-11.94,9.59,9.59,0,0,0,.15-5.36,14.54,14.54,0,0,1-.27-2.7c2-.24,3.14.24,3,2.64a4.56,4.56,0,0,0,3.41,4.47c2.27.74,4.75,1,6.88-.73a7.51,7.51,0,0,0,3-4.74c.21-1.44.94-1.68,2.2-1.67,4.49.05,9-.07,13.48,0,13.48.31,26.93-.8,40.4-.54.59,0,1.33.3,1.76-.48-.46-.77-1.19-.46-1.78-.47q-20.7-.28-41.4-.51c-4.08-.05-8.16-.11-12.24,0a5.9,5.9,0,0,1-5-2c-2.43-2.65-6.27-2.91-8.59-.23-1.81,2.09-3.75,2.4-6.12,2.18-.18-5.36-1.15-10.77,1-16a12.1,12.1,0,0,1,3.93-.5c10.82.38,21.62-.6,32.44-.53.7,0,2,.48,1.9-.82-.06-1-1.21-.63-1.88-.62-9.41.22-18.78-.72-28.19-.62-3,0-6.12-.41-9.19-.42,0-.66,0-1.33,0-2,0-4.35,1.14-5.48,5.63-5.48H159.58c40.3,0,80.6.07,120.9-.09,4.27,0,8.36,3.05,7.59,7.59-18.92,0-37.83-.05-56.75,0-10,0-20,0-29.93.59-5.16.28-10.3.21-15.44.41-.65,0-1.76-.36-1.66.84.07.9,1.05.64,1.65.61,7.25-.33,14.47.35,21.69.57,26.65.81,53.29.28,79.94.46-1.15,5.33.05,10.66,0,16a4.14,4.14,0,0,1-3.88-1.52c-3.21-3.48-7.69-3.27-10.5.42-.91,1.19-1.92,1.09-3.06,1.09-16.15,0-32.3-.19-48.44.11-6.55.12-13.11.35-19.67.41-.39,0-.83-.07-1.1.41.18.83.9.56,1.38.55,10-.34,19.93.57,29.91.53,12.23,0,24.47,0,36.7,0,2,0,3.23.21,3.26,2.77,0,2.26,2,3.66,3.93,4.4a5.92,5.92,0,0,0,6.15-.63c1.54-1.27,3.05-2.64,3.18-4.84.08-1.43.85-1.84,2.14-1.66a83,83,0,0,0,0,20c-20.5-.34-41,.75-61.49.51h-9.17v1Zm-124-7.31a84.38,84.38,0,0,0,9.37.7c9.6.62,19.24,1.09,28.86,1,24.32-.11,48.63.53,72.94-.33q11.7-.4,23.43-.7c2.76-.07,5.57-.33,8.37-.56a18.54,18.54,0,0,0-4.36-.79c-8.88-.09-17.75-1-26.62-1-35.29.05-70.6-.74-105.87,1C106.16,228.31,104.13,228.65,102.09,228.88ZM153.69,201H72.42C75.39,202.63,151.26,202.65,153.69,201Z"/><path class="cls-1" d="M12.57,234.7c12,1.11,24.1.09,36.17.63-.09,1.13-.84.74-1.33.85a1,1,0,0,1-.25,0c-11.2-.34-22.39.79-33.59.5H3.07a3.26,3.26,0,0,1,.52-2Z"/><path class="cls-6" d="M285.07,136.69c-2.86,5.23-8.14,6.17-11.68,2.07-.27-.32-.68-.65-.71-1-.26-3.18-2.4-3.13-4.82-3.1-8.24.09-16.5.38-24.72-.06-9.31-.49-18.6-.26-27.9-.41-.47,0-1,.07-1.35-.37.24-.88.94-.62,1.44-.61,12.63.33,25.25-.77,37.89-.53,5.57.1,11.15,0,16.73,0,1.09,0,2.19.09,2.72-1.21a5.92,5.92,0,0,1,6-3.69,6.44,6.44,0,0,1,6.44,4.88h-1.52c-2.41-3-5.2-3.89-7.67-2.39a5.27,5.27,0,0,0-2.15,6.12,5.39,5.39,0,0,0,5.37,3.25c2.75-.29,4.18-1.87,4.52-5l1.45,0C285.07,135.36,285.07,136,285.07,136.69Z"/><path class="cls-9" d="M278.67,210.67c3.08,0,5,2.07,4.92,5.33a4.72,4.72,0,0,1-5,4.7,4.91,4.91,0,0,1-5-5.09A4.8,4.8,0,0,1,278.67,210.67Z"/><path class="cls-9" d="M19.56,134.56c.05-3.13,2.06-5,5.28-4.89,3,.09,4.73,2.12,4.73,5.48a4.74,4.74,0,0,1-5.15,4.54A4.78,4.78,0,0,1,19.56,134.56Z"/><path class="cls-9" d="M19.55,215.9c0-3.25,1.92-5.23,5-5.23a4.82,4.82,0,0,1,5,5,4.76,4.76,0,0,1-5,5A4.81,4.81,0,0,1,19.55,215.9Z"/><path class="cls-3" d="M226.08,236.19h-9.17v-1h9.17Z"/><path class="cls-3" d="M78.57,155.2h3.21l0,.68a3,3,0,0,1-3.18-.19Z"/><path class="cls-3" d="M255.57,155.69c-1.34,1.06-2.76.23-4.16.25,1.24-1.25,2.78-.53,4.17-.74C255.57,155.36,255.57,155.53,255.57,155.69Z"/><path class="cls-9" d="M283.63,134.68c-.34,3.12-1.77,4.7-4.52,5a5.39,5.39,0,0,1-5.37-3.25,5.27,5.27,0,0,1,2.15-6.12c2.47-1.5,5.26-.63,7.67,2.39C283.58,133.36,283.61,134,283.63,134.68Z"/><path class="cls-1" d="M197.22,148.66c0,.49-.42.52-.71.5-3.58-.23-7.12.53-10.69.52-8.31-.05-16.63.32-24.92.63-21.39.79-42.78.35-64.17.26-10.36,0-20.74-.71-31.11-1a81.73,81.73,0,0,1-8.77-.54c.18-.89.66-.8,1-.81,4.72-.19,9.45-.32,14.18-.53,14.05-.63,28.12-.17,42.17-.63,6.9-.23,13.82-.62,20.68-.25,12.4.66,24.8-.09,37.17.47,8,.37,16.09.44,24.12.93C196.59,148.24,197.06,148.14,197.22,148.66Z"/><path class="cls-6" d="M147.93,120.7h81.28C225.42,122.61,151.84,122.62,147.93,120.7Z"/><path class="cls-1" d="M102.09,228.88c2-.23,4.07-.57,6.12-.66,35.27-1.7,70.58-.91,105.87-1,8.87,0,17.74.89,26.62,1a18.54,18.54,0,0,1,4.36.79c-2.8.23-5.61.49-8.37.56q-11.72.28-23.43.7c-24.31.86-48.62.22-72.94.33-9.62,0-19.26-.42-28.86-1A84.38,84.38,0,0,1,102.09,228.88Z"/><path class="cls-6" d="M153.69,201c-2.43,1.69-78.3,1.67-81.27,0Z"/></g></g></svg>