<?xml version="1.0" encoding="utf-8"?>
<!-- Generator: Adobe Illustrator 22.1.0, SVG Export Plug-In . SVG Version: 6.00 Build 0)  -->
<svg version="1.1" id="Layer_1" xmlns="http://www.w3.org/2000/svg" xmlns:xlink="http://www.w3.org/1999/xlink" x="0px" y="0px"
	 viewBox="0 0 1088.4 399.6" style="enable-background:new 0 0 1088.4 399.6;" xml:space="preserve">
<style type="text/css">
	.st0{fill:#FFFFFF;}
	.st1{fill:#F09819;}
</style>
<title>foobar_logo</title>
<g id="Layer_1-2">
	<path class="st0" d="M135.6,132.1l-0.1,10.9c0,10.7-0.2,20.2-0.5,28.6c-9.1,0.8-21.6,1.2-37.5,1.2l-27.1,0.1v3.4l-0.2,10.3
		c0,2.7,0.1,5.4,0.3,8c19.5-1.6,34-2.5,43.4-2.5s15.2,0.7,17.3,2.1v39.3c0,2.6-0.5,4.3-1.5,5.2c-1.4,1-3,1.4-4.7,1.3h-1.5l-6.3-0.2
		c-14,0.8-29.5,1.4-46.5,1.8l0.8,46.6l-0.1,4v11c0,2.4-0.7,3.6-2.1,3.8l-67,0.6c-0.5-1.1-1.1-2.2-1.8-3.2c-0.3-5.2-0.5-9.5-0.5-13.1
		l0.7-163c0-1,5.3-1.5,15.9-1.5l2.9,0.1h8l56.6-0.6l40.2,0.5h4l1.8-0.1c2.2,0,3.6,0.5,4.4,1.5C135.3,129.2,135.7,130.7,135.6,132.1z
		"/>
	<path class="st1" d="M139.1,215.4l0.2-2.6c0.8-8.7,2-17.4,3.8-26c1.5-7.4,4.1-14.5,7.6-21.1c8.1-14.2,20.3-25.7,35-32.9
		c15-7.5,31.6-11.3,48.4-11.2c17.3,0,33.1,3.5,47.2,10.4c8.4,4.1,15,9.4,19.8,15.7c9.1,11.4,15.2,21.9,18,31.5s4.3,20.7,4.3,33.3
		c0,28-5.8,49.3-17.4,64l-5.4,7.1c-7.3,8.4-17.5,14.9-30.8,19.5c-12.7,4.5-26,6.9-39.5,7.1c-22.3,0-40.7-4.7-55-14.1
		C151.2,280.6,139.1,253.6,139.1,215.4z M206.5,214.5c0,0.2-0.1,0.4-0.1,0.6v0.4c-0.3,3.3-0.5,6.9-0.5,11c0,4.3,0.4,8.6,1,12.9
		c0.7,4.6,1.8,9.2,3.3,13.6c1.3,4.2,3.8,8,7.1,11c3.2,2.9,7.3,4.5,11.5,4.5c3.7,0.1,7.3-0.5,10.8-1.8c2.7-1.1,5.2-2.6,7.4-4.6
		c2.2-2.2,4-4.8,5.2-7.6c3.8-8.5,5.6-21.7,5.6-39.6c0-18.2-2.1-31-6.3-38.3c-4.2-7.3-10.5-11-18.9-11c-3.9-0.1-7.8,1-11.1,3.1
		c-2.7,1.7-5.2,3.8-7.1,6.3c-1.6,2.2-3.2,6.8-4.9,13.9c-1.6,6.4-2.4,13.1-2.5,19.7L206.5,214.5z"/>
	<path class="st1" d="M331.9,215.4l0.2-2.6c0.8-8.7,2-17.4,3.8-26c1.5-7.4,4.1-14.5,7.6-21.1c8.1-14.2,20.3-25.7,35-32.9
		c15-7.5,31.6-11.3,48.4-11.2c17.3,0,33.1,3.5,47.2,10.4c8.4,4.1,15,9.4,19.8,15.7c9.1,11.4,15.2,21.9,18,31.5
		c2.9,9.6,4.3,20.7,4.3,33.3c0,28-5.8,49.3-17.3,64l-5.4,7.1c-7.3,8.4-17.5,14.9-30.8,19.5c-12.7,4.5-26,6.9-39.5,7.1
		c-22.3,0-40.7-4.7-55-14.1C344,280.6,331.9,253.6,331.9,215.4z M399.3,214.5c0,0.2-0.1,0.4-0.1,0.6v0.4c-0.3,3.3-0.5,6.9-0.5,11
		c0,4.3,0.4,8.6,1,12.9c0.7,4.6,1.8,9.2,3.3,13.6c1.3,4.3,3.7,8.1,7,11.1c3.2,2.9,7.3,4.4,11.5,4.5c3.7,0.1,7.3-0.5,10.8-1.8
		c5.8-2.1,10.4-6.6,12.7-12.3c3.8-8.5,5.6-21.7,5.6-39.6c0-18.2-2.1-31-6.3-38.3s-10.5-11-18.9-11c-3.9-0.1-7.8,1-11.1,3.1
		c-2.8,1.7-5.2,3.8-7.1,6.3c-1.6,2.2-3.2,6.8-4.9,13.9c-1.6,6.4-2.4,13.1-2.5,19.7L399.3,214.5z"/>
	<path class="st0" d="M533.3,172.8l-0.1-2.3v-7.3c0-10.1,0.2-21.6,0.6-34.7l-0.2-0.2l6.3-0.3c20.4-1.1,33.6-1.6,39.7-1.6h54.6
		c18.7,0,34.2,3.9,46.5,11.6c4.7,4.2,8.3,9.3,10.7,15.1c2.8,6.8,4.2,14.1,4.1,21.4c0,15.4-10.3,28.5-30.9,39.3
		c11.6,3.2,20.6,8.3,26.8,15.4s9.3,15.7,9.3,25.9c0,18.1-8.1,31.9-24.4,41.2c-11.9,7-27.1,10.6-45.3,10.5l-34.9-0.4
		c-15.1,0-35.1,0.4-60,1.1c-2.2-4.6-3.3-22.9-3.3-54.7C532.7,220.8,532.9,194.2,533.3,172.8z M631.4,192.5c1.6-3.4,2.4-7.1,2.3-10.8
		c0-8.2-2.9-13.7-8.8-16.5c-5.7-2.8-12-4.2-18.4-4.2c-6.4,0-9.6,2.3-9.6,7c0,8.4,0.2,16.9,0.6,25.7l0.2,6.2c0.2,3,1.9,4.7,5.2,5.3
		l5.7-0.7C620.5,203,628.1,199,631.4,192.5L631.4,192.5z M606.2,270.9c20.2,0,30.3-7.1,30.3-21.2c0-9-2.7-15-8.2-18
		c-4.9-2.7-12.5-4.2-22.6-4.5h-3.4l-2.1,6.6c-0.5,8-0.8,16-0.8,23.7c0,7.8,0.8,12.3,2.5,13.4L606.2,270.9z"/>
	<path class="st0" d="M903.5,304.9c-0.1,1-2.2,1.5-6.5,1.5h-10.8l-7.3,0.1h-7.1l-11.4,0.1c-11.3,0-20.7-0.3-28.2-0.8
		c-0.2-0.1-0.5-0.5-0.8-1.4l-0.6-2.5c-0.7-8-2.5-15.9-5.5-23.3l-50.2,0.5c-0.3,1.3-1.3,5.3-3,11.8s-3,11.5-3.9,14.9
		c-0.8,0.8-4.5,1.2-11.1,1.2l-2.9-0.1h-6.8l-30.5,0.7h-3.5l-3.3,0.1H702c-0.6-0.7-1.2-1.4-1.8-2.1C708,278.5,718.6,245,732,205
		l2.7-8.3h-0.1l3.1-9.7c1-3.1,3.9-11.8,8.7-26c4.8-14.2,7.8-23.4,9-27.5c1.2-4.1,1.9-6.3,2.2-6.4H777l41.6-0.6l11.2,0.6l9.3-0.6
		c4.7,0,7,0.9,7,2.8c7.8,21.8,18.2,53.2,31.3,94.1s20.4,63.9,22,69l1.6,5.9C901.7,300.5,902.5,302.7,903.5,304.9z M787.5,240.9
		l4.8,0.1l28-0.1c-1.2-9.3-2.1-16.2-2.7-20.5l-4.5-20c-4.7-20.7-7.1-31.2-7.3-31.6c-0.2-0.4-0.3-0.8-0.4-1.1
		c-0.1-0.2-0.2-0.5-0.3-0.7c-0.1-0.2-0.2-0.4-0.3-0.6c-0.1-0.2-0.2-0.5-0.3-0.6c-0.2-0.2-0.3-0.3-0.4-0.5c-0.8-1.2-2-2-3.4-2.5
		c-2.1,0.5-8.4,24-18.9,70.6l-1.3,7.7L787.5,240.9z"/>
	<path class="st0" d="M962.2,127.3l37.6-0.3c8,0,15.2,0.2,21.7,0.5c17.4,0.5,30.7,4.6,39.8,12.3c9.1,7.7,13.7,18.6,13.7,32.7
		c0,9.8-2.8,18.1-8.6,25s-14,13-25,18.2c17.3,5.5,27.8,18.8,31.5,39.8c0.9,4.6,1.5,9.9,2,15.8s0.9,9.9,1.2,12l1.2,6
		c0.8,5.1,1.9,10.2,3.3,15.2l-0.5,0.4c-13.3,0.9-25.4,1.3-36.4,1.3s-20.7-0.2-29.1-0.6h-0.6c-2.4,0-5-11.5-7.7-34.6l-0.6-5
		c-0.3-8.6-1.8-14.4-4.5-17.3s-7.4-4.5-14-4.4l-1.5,0.1h-6.2V280l0.1,3.8v21.4c-0.2,0.8-0.9,1.3-1.8,1.4c-8.6,0.3-20.7,0.5-36.4,0.5
		s-26,0-31,0.1l-0.7-0.2l-0.2,0.1c-0.3,0-0.5-0.2-0.7-0.4l0.2-10.5l-0.1-3.5l0.5-48.6v-8.6l0.1-8.8l0.1-30.4l0.1-4l-0.3-26.6
		l0.5-37.4c0-0.6,2.2-0.9,6.7-0.9l7.5,0.1h7.2l14.9,0.1L962.2,127.3z M1005.6,165.5c-4.7-2-10.9-3-18.8-3H980
		c-0.9,1.3-1.3,7.8-1.3,19.7s0.2,19.9,0.6,24c24.4-0.6,36.7-9,36.7-25.3C1016,173.9,1012.5,168.8,1005.6,165.5L1005.6,165.5z
		 M1080.8,304.5v0.1c-0.1,0-0.1,0-0.1-0.1c0,0,0,0,0,0H1080.8z M1081.4,304.2l-0.6,0.4v-0.2C1080.8,304.2,1081,304.1,1081.4,304.2
		L1081.4,304.2z"/>
	<rect x="1.4" y="80.9" class="st0" width="1087" height="15"/>
	<rect x="1.4" y="327" class="st0" width="1087" height="15"/>
	<path class="st0" d="M487.8,17c0,0.9-0.1,1.3-0.3,1.3l-14.1-0.1c-0.1,2.5-0.1,6.5-0.1,11.8s0,9.1,0,11.2l0.1,20.7
		c-0.1,0.3-0.4,0.6-0.8,0.6l-8.2-0.1l0,0h-2.6h-7.1c-1.9,0-3.4,0-4.3,0l-0.7-0.6l-0.5-0.6c0-2.3,0.1-7.4,0.3-15.3l0.4-20.8l-0.1-1
		c0-1.5-0.2-3.1-0.5-4.6c-0.1-0.4-0.5-0.8-1-0.8c-0.5,0-0.9-0.1-1.1-0.1l-1.6,0.1l-9.7-0.1c-0.4-1.5-0.6-3-0.5-4.6l0.1-3.4v-1
		c0-4.2-0.1-6.4-0.1-6.7c0.1,0,0.2,0,0.3,0.1l49.7-0.4c0.6-0.1,1.3,0,1.9,0.2c0.3,0.2,0.4,0.5,0.4,0.8v10.3L487.8,17z"/>
	<path class="st0" d="M540.7,35.3v12.2v7.2v6.7h-22.1v-20l0.1-4.3c0.1-1.8-0.2-3.6-1-5.3c-0.5-1-1.5-1.7-2.6-1.7
		c-1.8-0.1-3.3,1.1-3.6,2.9c-0.4,1.7-0.5,3.5-0.5,5.3v5v1.6v16.5h-11.2h-11.1V30.7V0.1C493.9,0,501.4,0,511.3,0v19.7
		c1.9-2.1,4.2-3.8,6.7-4.9c2.2-1.1,4.7-1.8,7.2-1.8c2.2,0,4.4,0.5,6.4,1.6c2,1,3.8,2.4,5.2,4.1c1.2,2,2.2,4.2,2.9,6.5
		c0.7,2,1.1,4.2,1.2,6.3L540.7,35.3z"/>
	<path class="st0" d="M564.9,13.4c1.2-0.3,2.5-0.5,3.8-0.5c1.3,0,2.6,0.1,3.8,0.2l1.6,0.1c2,0.1,4,0.4,5.9,0.9l0,0l0.8,0.4
		c5.5,1.7,9.7,4.2,12.8,7.7l0,0c1,1.2,1.8,2.5,2.6,3.8c0.8,1,1.3,2.2,1.5,3.5l0.3,1.1l0.2,1.1c0.5,1.4,0.7,2.9,0.8,4.4
		c0,1.2,0,2.1,0,2.7h-32.2V40c0.2,0.6,0.2,1.2,0.2,1.9c0,0.7,0,1.2,0,1.5c0,0.4,0,0.7,0.1,1.1c0,0.3,0.1,0.6,0.1,0.9
		c0,0.3,0.1,0.5,0.2,0.8c0.1,0.2,0.1,0.4,0.2,0.6c0.1,0.2,0.1,0.4,0.2,0.6c0.1,0.3,0.3,0.6,0.3,0.9c0.1,0.3,0.3,0.6,0.5,0.8l0,0
		l0.4,0.8c0.5,0.6,1.2,1,2,1.2c1.3-0.2,2.4-1,2.9-2.2c0.6-1.4,1-2.9,1.3-4.4c1.3-0.3,2.7-0.4,4-0.4l5,0.1h14.4
		c-0.3,3.1-1.2,6-2.7,8.7l0,0c-1.6,2.4-3.8,4.3-6.3,5.5c-8.1,2.8-13.3,4.3-15.6,4.3c-0.3,0-0.7,0-1-0.1h-0.9h-0.4h-0.3
		c-0.3,0-0.5,0-0.8-0.1c-0.3,0.2-0.6,0.2-0.9,0.2l-3.4-0.4c-0.4,0.1-0.7,0.1-1.1,0.1c-1.5-0.2-3-0.6-4.4-1l0,0l-0.9-0.3l-0.9-0.3
		c-3.8-1.1-7.2-3.2-10-6c-2.7-2.7-4.6-6.2-5.3-10c-0.1-0.5-0.2-1.2-0.4-2.1c-0.2-0.6-0.3-1.3-0.3-1.9v-1.9c0-0.3,0-0.7,0-1v-0.6
		c-0.1-5.2,1.6-10.3,4.9-14.3c3.4-4.1,8-7.1,13.2-8.5l0.9-0.3C563,14,564,13.8,564.9,13.4L564.9,13.4z M576.5,33.5l0.8-0.5
		c-0.2-1.8-0.6-3.7-1.2-5.4c-0.3-0.7-0.7-1.4-1.1-2.1c-0.5-1-1.5-1.6-2.7-1.6c-1.2,0-2.2,0.6-2.8,1.6c-1.6,2.4-2.5,5.2-2.6,8.1
		c1.7-0.1,3.2-0.2,4.6-0.2L576.5,33.5z"/>
	<path class="st1" d="M94.7,361.3h4.2h9.5c0.1,0,0.1,0,0.1,0l0.9,5.7c0.2,1.7,0.6,4.2,1.1,7.5s0.8,5.5,1,6.3l0.2,1.3h0.9
		c0.4-4.7,1.2-10.9,2.4-18.6l0.1-0.6c0-0.2,0-0.4,0-0.5c0-0.3,0.1-0.7,0.2-1c0.1-0.2,0.6-0.4,1.3-0.4c3.8-0.1,7.6,0.1,11.4,0.4
		c0.1,0.2,0.2,0.4,0.2,0.6c-0.4,1.8-1,4.7-1.9,8.5s-1.6,6.8-2,8.8l-0.2,0.9c0,0.1-0.1,0.4-0.3,0.9c-0.1,0.3-0.2,0.7-0.2,1L122,390
		l-0.8,3.8c-0.4,2.2-0.7,3.7-0.9,4.7h-0.1c-1.1,0.1-2.9,0.1-5.2,0.1h-3.8h-1.3c-1.8,0-3.5,0-5,0.1c-0.2,0-0.4-1.3-0.7-3.9
		s-0.5-4-0.5-4.1l-0.2-1.2c-0.5-3.4-1-7-1.6-10.8h-0.9c-0.9,4.8-1.8,10.6-2.5,17.4c-0.2,1.8-0.5,2.7-1.1,2.8
		c-2.3-0.1-4.6-0.1-6.8-0.1s-5,0-8.4,0.2c-0.5-0.4-0.8-1.4-1.1-3L81,395c-0.6-3.3-1.9-9.3-3.9-18.2l-0.5-2.4
		c-0.2-0.9-0.6-2.8-1.2-5.6c-0.6-2.8-1.2-5.3-1.6-7.4c0-0.1,0.1-0.2,0.3-0.3c0.4,0,0.8,0.1,1.2,0.1h0.3l2.3-0.1l3.4-0.1
		c1.1,0,2,0,2.6,0.1h1.5l0.8,0h0.3c0.5,0,1.3,4.1,2.2,12.2c0.4,3.7,0.7,5.8,0.8,6.4l0.2,1.4h1c0.6-3.8,1.3-8.2,2-13.2
		c0.1-1.2,0.2-2.3,0.4-3.5c0.1-1.1,0.4-2.2,0.8-3.2C94,361.3,94.3,361.3,94.7,361.3z"/>
	<path class="st1" d="M165,389.7v2.9c0,1.2,0,3.1,0,5.8c-0.2,0.3-2,0.5-5.4,0.5s-6.4,0-9.1-0.1c0,0-0.2-0.2-0.5-0.6v-3.9l0.1-7.5
		c0-0.7-0.1-1.2-0.2-1.3c-0.5-0.2-1-0.3-1.5-0.2H148c-1.2,0-2.4,0.1-3.7,0.2v3.4v9.5c-0.2,0.3-2.3,0.4-6.1,0.4H137
		c-3.3,0-5.8-0.1-7.2-0.1c-0.3-0.1-0.5-1.2-0.5-3.5l0.1-5.4l0.2-21.9v-1.2c0-0.2,0-1.1,0-2.5c-0.1-0.9,0-1.9,0.3-2.8h0.1
		c1.1,0,1.9,0,2.4,0h2.7l3,0h0.9c2.8,0,4.4,0.3,4.8,1c0.3,0.5,0.4,1,0.3,1.5l-0.1,3v1.1l-0.1,4.8c0,0.4,0,0.8,0.1,1.4h1.5h0.6h2
		c0.7,0,1.5-0.1,2.2-0.2v-5.8v-1.8v-1.7v-0.4v-1.2c0-0.6,0-1.2,0.1-1.8c0.1-0.2,0.3-0.3,0.7-0.3h0.5h1.6l5.3-0.1
		c4.2,0,6.3,0.3,6.3,1v1.7v0.6v1.3v3.8l0.1,15.6c0,0.3,0,0.6,0,1v1.2c0,0.5,0,1.2,0,2L165,389.7z"/>
	<path class="st1" d="M170,367.8l-0.1-6.4l0.2,0.1c12.4-0.2,21.7-0.3,28-0.3c0.1,0,0.1,0.1,0.1,0.1v6.9c0,0.7,0,1.2-0.1,1.6
		c-0.1,0.3-0.6,0.4-1.4,0.4h-0.2c-3.9,0-8-0.1-12.3-0.2c0,0.1,0,0.4-0.1,0.8s-0.1,0.6-0.1,0.8l-0.1,0.9c-0.1,1.1-0.2,2.1-0.2,3.2
		l7.6-0.2c1.3,0,2.2,0,2.8,0h0.4c0.7,0,1.3,0,1.9,0.1c0.3,0,0.5,0.2,0.5,0.5c0,0,0,0,0,0v0.2v0.6l0.1,6.3l0,0l0,0
		c-5,0.2-8.9,0.4-11.9,0.4H184v5.9l13.3-0.4c0.5-0.1,1,0,1.4,0.3c0,0.4,0,1,0,1.8l0.2,6.6c0.1,0.3-0.2,0.7-0.5,0.7c0,0,0,0,0,0
		l-8.1-0.1c-1.6,0-4.8,0.1-9.5,0.2l-4,0.1c-2.8,0.1-4.9,0.1-6.3,0.1h-0.1l0,0l-0.5-0.5v-0.9l0.1-26.1L170,367.8z"/>
	<path class="st1" d="M238.8,381v1.6v9l0.1,4.3v1.2v1.1c-0.1,0.1-0.5,0.2-1.2,0.2H237l-7.7,0.1h-7.3c-1-2.3-1.9-4.7-2.7-7.1
		l-4.7-12.4l-0.9,0.1v2.5v6.6l0.1,6.6v2.7c0,0.7-0.2,1.1-0.5,1.1c-1.6,0-3.1-0.1-4.6-0.1h-0.8l-3.7,0.1h-0.5l-1.8,0l-0.1,0
		c-0.5-0.5-0.8-0.9-0.8-1.1v-0.4v-0.5l0.1-9.5c0-10.4,0.1-18.4,0.3-23.7l0.1-2c0-0.1,5.6-0.3,16.8-0.4c0.2,0.3,0.4,0.7,0.4,1.1v-0.1
		l0.1,0.5c1.2,3.4,2.7,7.4,4.4,11.9l2.6,6.9l0.8,0l0.1-19.9c0-0.1,1.2-0.2,3.6-0.2l6.1,0.1h1.8C238.7,366.8,238.8,373.3,238.8,381z"
		/>
	<path class="st1" d="M244,367.8l-0.1-6.4l0.2,0.1c12.4-0.2,21.7-0.3,27.9-0.3c0.1,0,0.1,0.1,0.1,0.1v6.9c0,0.7,0,1.2,0,1.6
		c-0.1,0.3-0.6,0.4-1.4,0.4h-0.2c-3.9,0-8-0.1-12.3-0.2c0,0.1,0,0.4-0.1,0.8c0,0.4-0.1,0.6-0.1,0.8l-0.1,0.9
		c-0.1,0.6-0.1,1.7-0.2,3.2l7.6-0.2c1.3,0,2.2,0,2.8,0h0.4c0.7,0,1.3,0,2,0.1c0.3,0,0.5,0.2,0.5,0.5c0,0,0,0,0,0v0.2v0.6l0.1,6.3
		l0,0l0,0c-4.9,0.2-8.9,0.4-11.9,0.4H258v5.9l13.3-0.4c0.5-0.1,1,0,1.4,0.3c0,0.4,0,1,0,1.8l0.2,6.6c0.1,0.3-0.2,0.7-0.5,0.7
		c0,0,0,0,0,0l-8.1-0.1c-1.6,0-4.8,0.1-9.5,0.2l-4,0.1c-2.8,0.1-4.9,0.1-6.3,0.1h-0.1l0,0l-0.5-0.5v-0.9l0.1-26.1L244,367.8z"/>
	<path class="st1" d="M299.2,398.6l-3.1-0.1h-1.8c-0.5,0.1-1.6,0.1-3.4,0.1s-4.3,0-7.7,0.1c-0.7-0.6-1.3-2.2-1.8-4.9
		c-0.6-2.7-1.3-5.5-2.1-8.4s-1.4-4.7-1.6-5.4l-0.7-2.6c-0.2-0.8-0.6-2-1.1-3.8c-1.6-5.6-2.7-9.6-3.2-12.2c0-0.1,4.8-0.2,14.3-0.2
		c0.3,0,0.5,0.1,0.7,0.3c1.3,7.6,2.7,16,4.3,25l0.2,1.3h1l0.2-1.3c0.5-3.2,1.5-8.3,2.9-15.4l0.6-2.8c0.2-0.9,0.6-3.2,1.3-6.9
		c0.8-0.2,4.9-0.3,12.4-0.3h1.1c0.1,0.1,0.3,0.2,0.4,0.3l-4.9,17.7c-0.4,1.3-0.6,2.1-0.6,2.5l-1.1,4.5c-1.8,7.8-3.2,12-4,12.5
		c-0.4,0-1.1,0-2.1,0L299.2,398.6z"/>
	<path class="st1" d="M313.9,367.8l-0.1-6.4c0.1,0,0.1,0,0.2,0.1c12.4-0.2,21.7-0.3,28-0.3c0.1,0,0.1,0.1,0.1,0.1v6.9
		c0,0.7,0,1.2,0,1.6c-0.1,0.3-0.6,0.4-1.4,0.4h-0.2c-3.9,0-8-0.1-12.3-0.2c0,0.1,0,0.4-0.1,0.8c0,0.4-0.1,0.6-0.1,0.8l-0.1,0.9
		c-0.1,0.6-0.1,1.7-0.2,3.2l7.6-0.2c1.3,0,2.2,0,2.8,0h0.4c0.7,0,1.3,0,2,0.1c0.3,0,0.5,0.2,0.5,0.5c0,0,0,0,0,0v0.2v0.6l0.1,6.3
		l0,0l0,0c-4.9,0.2-8.9,0.4-11.9,0.4H328v5.9l13.3-0.4c0.5-0.1,1,0,1.4,0.3c0,0.4,0,1,0,1.8l0.2,6.6c0.1,0.3-0.2,0.7-0.5,0.7
		c0,0,0,0,0,0l-8.1-0.1c-1.6,0-4.8,0.1-9.5,0.2l-4,0.1c-2.8,0.1-4.9,0.1-6.3,0.1h-0.1l0,0l-0.5-0.5v-0.9l0.1-26.1L313.9,367.8z"/>
	<path class="st1" d="M356.6,361.3l7.8-0.1c1.7,0,3.2,0,4.5,0.1c3.6,0.1,6.4,1,8.3,2.6c1.9,1.7,3,4.2,2.8,6.8
		c0.1,1.9-0.6,3.7-1.8,5.2c-1.4,1.6-3.2,2.9-5.2,3.8c3.6,1.1,5.8,3.9,6.6,8.3c0.2,1.1,0.3,2.2,0.4,3.3c0.1,1.2,0.2,2.1,0.3,2.5
		l0.2,1.2c0.2,1.1,0.4,2.1,0.7,3.2l-0.1,0.1c-2.8,0.2-5.3,0.3-7.6,0.3s-4.3,0-6.1-0.1h-0.1c-0.5,0-1-2.4-1.6-7.2l-0.1-1
		c-0.1-1.8-0.4-3-0.9-3.6c-0.8-0.7-1.9-1-2.9-0.9h-0.3h-1.3v7.4v0.8v4.5c-0.1,0.2-0.2,0.3-0.4,0.3c-1.8,0.1-4.3,0.1-7.6,0.1
		s-5.4,0-6.5,0h-0.1h0c-0.1,0-0.1,0-0.1-0.1v-2.2v-0.7l0.1-10.1v-1.8V382v-6.3v-0.8l-0.1-5.5l0.1-7.8c0-0.1,0.5-0.2,1.4-0.2h1.6h1.5
		h3.1L356.6,361.3z M365.6,369.3c-1.2-0.5-2.6-0.7-3.9-0.6h-1.4c-0.2,0.3-0.3,1.6-0.3,4.1s0,4.1,0.1,5c5.1-0.1,7.6-1.9,7.6-5.3
		C367.8,371.1,367,369.8,365.6,369.3L365.6,369.3z M381.3,398.3L381.3,398.3L381.3,398.3z M381.4,398.2l-0.1,0.1v0
		C381.3,398.3,381.4,398.2,381.4,398.2L381.4,398.2z"/>
	<path class="st1" d="M400.3,376.7h-1.2h-1c-0.2-0.3-0.4-0.7-0.5-1c0.3-0.7,0.7-1.7,1.1-3s0.8-2.2,1-2.7l1.3-3.7l2.3-5.6
		c1.7-0.2,3.4-0.2,5.1-0.1c3.2,0,4.8,0.1,4.8,0.4c-0.1,1.3-0.3,2.7-0.7,3.9c-0.5,1.7-0.7,2.8-0.8,3.3l-0.2,1.2
		c-0.8,4.1-1.4,6.4-1.8,7c-0.1,0.2-0.2,0.2-0.3,0.2h0c-1.8,0.1-4.1,0.1-6.7,0.1L400.3,376.7z"/>
	<path class="st1" d="M452.2,379.1l-0.1,6.9c0,1.9-0.3,3.8-1,5.6c-0.6,1.5-1.5,2.8-2.7,3.9c-3,2.7-7.5,4.1-13.4,4.1
		c-5.9,0-10.5-1.4-13.7-4.3c-1.2-1.1-2.2-2.4-2.9-3.9c-0.8-1.7-1.3-3.5-1.4-5.4c0.1-6.8,0.1-13.1,0.1-18.9c-0.1-0.8-0.2-1.7-0.1-2.6
		c-0.1-1.1,0-2.1,0.2-3.2h0.5c2.4-0.1,5.7-0.2,9.8-0.2c0.5,0.1,1.1,0.1,1.6,0.1c0.8,0,1.3,0,1.6,0.1l0.8,0.1
		c0.1,3.2,0.2,7.7,0.2,13.3l-0.1,9.8c0,3.2,1,4.9,2.8,4.9c0.8,0,1.5-0.4,2-1c0.5-0.7,0.8-1.5,0.9-2.4l0.1-0.2l0.1-8.2v-0.7
		c0-3.8,0-7.4-0.1-10.9v-1.8c0-0.7,0-1.4,0-1.9c0-0.4,0.1-0.8,0.3-1.2c6.3,0,11,0,14.2,0.1c0.1,0.1,0.3,0.2,0.4,0.3l0,0l0.3,0.2
		c-0.1,3.1-0.2,7-0.2,11.9v4.2L452.2,379.1z"/>
	<path class="st1" d="M463.8,360.7l3.1,0c2.5,0,3.7,0.1,3.7,0.3c0,0.1-0.1,0.2,0,0.3c-0.2,0.5-0.5,1.3-0.9,2.4s-0.6,1.7-0.7,2
		l-0.7,2c-1.2,3.6-2.2,6.4-3,8.4c-0.7,0.5-2.3,0.8-4.9,0.8h-2.2h-0.3h-1.7c-0.4,0.1-0.9,0-1.3-0.2l-0.2-0.3c0-0.2,0.1-0.4,0.2-0.7
		s0.1-0.5,0.2-0.7l0.9-3.4l-0.4-0.2c2-5.3,3.1-8.8,3.4-10.5h0.8L463.8,360.7z M465.7,375.7l-0.4,0.7l0.1-0.4
		C465.5,375.9,465.6,375.8,465.7,375.7L465.7,375.7z"/>
	<path class="st1" d="M528.8,381v1.6v9v4.3v1.2v1.1c-0.1,0.1-0.5,0.2-1.2,0.2H527l-7.7,0.1h-7.3c-1-2.3-1.9-4.7-2.7-7.1l-4.7-12.4
		l-0.9,0.1v2.5v6.6l0.1,6.6v2.7c0,0.7-0.2,1.1-0.5,1.1c-1.6,0-3.1-0.1-4.6-0.1h-0.8l-3.7,0.1h-0.5l-1.8,0l-0.1,0
		c-0.5-0.5-0.8-0.9-0.8-1.1v-0.4v-0.5l0.1-9.5c0-10.4,0.1-18.4,0.3-23.7l0-2c0-0.1,5.6-0.3,16.8-0.4c0.2,0.3,0.4,0.7,0.4,1.1v-0.1
		l0.1,0.5c1.2,3.4,2.7,7.4,4.4,11.9l2.6,6.9l0.8,0l0.1-19.9c0-0.1,1.2-0.2,3.6-0.2l6.1,0.1h1.8C528.7,366.8,528.8,373.3,528.8,381z"
		/>
	<path class="st1" d="M534,367.8l-0.1-6.4l0.2,0.1c12.4-0.2,21.7-0.3,28-0.3c0.1,0,0.1,0.1,0.2,0.1v6.9c0,0.7,0,1.2,0,1.6
		c-0.1,0.3-0.6,0.4-1.4,0.4h-0.2c-3.9,0-8-0.1-12.3-0.2c0,0.1,0,0.4-0.1,0.8c0,0.4-0.1,0.6-0.1,0.8l-0.1,0.9
		c-0.1,0.6-0.1,1.7-0.2,3.2l7.6-0.2c1.3,0,2.2,0,2.8,0h0.4c0.7,0,1.3,0,2,0.1c0.3,0,0.5,0.2,0.5,0.5c0,0,0,0,0,0v0.2v0.6l0.1,6.3
		l0,0l0,0c-4.9,0.2-8.9,0.4-11.9,0.4H548v5.9l13.3-0.4c0.5-0.1,1,0,1.4,0.3c0,0.4,0,1,0,1.8l0.2,6.6c0.1,0.3-0.2,0.7-0.5,0.7
		c0,0,0,0,0,0l-8.1-0.1c-1.6,0-4.8,0.1-9.5,0.2l-4,0.1c-2.8,0.1-4.9,0.1-6.3,0.1h-0.1l0,0l-0.5-0.5v-0.9l0.1-26.1L534,367.8z"/>
	<path class="st1" d="M565.9,367.8l-0.1-6.4l0.2,0.1c12.4-0.2,21.7-0.3,28-0.3c0.1,0,0.1,0.1,0.1,0.1v6.9c0,0.7,0,1.2,0,1.6
		c-0.1,0.3-0.6,0.4-1.4,0.4h-0.2c-3.9,0-8-0.1-12.3-0.2c0,0.1,0,0.4-0.1,0.8c0,0.4-0.1,0.6-0.1,0.8l-0.1,0.9
		c-0.1,0.6-0.1,1.7-0.2,3.2l7.6-0.2c1.3,0,2.2,0,2.8,0h0.4c0.7,0,1.3,0,2,0.1c0.3,0.1,0.5,0.2,0.5,0.5v0.2v0.6l0.1,6.3l0,0l0,0
		c-4.9,0.2-8.9,0.4-11.9,0.4h-1.3v5.9l13.2-0.4c0.5-0.1,1,0,1.4,0.3c0,0.4,0,1,0,1.8l0.2,6.6c0.1,0.3-0.2,0.7-0.5,0.7c0,0,0,0,0,0
		l-8.1-0.1c-1.6,0-4.8,0.1-9.5,0.2l-4,0.1c-2.8,0.1-4.9,0.1-6.3,0.1h-0.1l0,0l-0.5-0.5v-0.9l0.2-26.1L565.9,367.8z"/>
	<path class="st1" d="M607.5,361.1l4.6-0.1c8,0,13.6,1.3,16.8,4c0.9,0.7,1.6,1.6,2.2,2.5c2.3,3.3,3.6,7.3,3.5,11.4
		c0,7.4-2.5,12.9-7.6,16.4c-3.1,2.1-6.7,3.3-10.5,3.2l-0.1,0.1h-0.6l-6.5-0.1c-3,0-6.6,0.1-11.1,0.2c-0.3-0.6-0.5-1.4-0.5-2.1v-0.9
		v-3.8v-5.4v-8.9c0-2,0-3.6,0-4.6v-4v-0.6v-7c0-0.1,0.9-0.2,2.7-0.3s3.2-0.1,4.2-0.1L607.5,361.1z M617.9,369.6
		c-0.9-0.7-2-1-3.1-1.1l-1.6,0h-1.5c-0.2,0.3-0.4,0.7-0.6,1l-0.4,0.9v1.4c0,2.8,0.1,6.6,0.2,11.5l0.2,7.1c0.1,0.5,0.5,0.9,1,0.9
		c1.3,0,2.6-0.1,3.9-0.3c3.2-1.1,4.8-5,4.8-11.7C620.7,374.1,619.8,370.9,617.9,369.6L617.9,369.6z"/>
	<path class="st1" d="M692.3,398.3c0,0.2-0.5,0.3-1.3,0.3h-2.2h-1.5h-1.5h-2.4c-2.4,0-4.3-0.1-5.9-0.2c-2.3-0.2-0.1-0.1-0.2-0.3
		l-0.1-0.5c-0.1-1.7-0.5-3.3-1.2-4.9l-10.5,0.1c-0.1,0.3-0.3,1.1-0.6,2.5s-0.6,2.4-0.8,3.1c-0.7,0.2-1.5,0.3-2.3,0.2h-0.6h-1.4
		l-6.3,0.1h-0.7H652h-1.7c-0.1-0.1-0.2-0.3-0.4-0.4c1.6-5.6,3.8-12.6,6.6-21l0.6-1.7l0,0l0.7-2c0.2-0.7,0.8-2.5,1.8-5.4
		c1-3,1.6-4.9,1.9-5.7c0.1-0.5,0.3-0.9,0.5-1.3h4l8.7-0.1l2.3,0.1l1.9-0.1c1,0,1.5,0.2,1.5,0.6c1.6,4.5,3.8,11.1,6.5,19.6l4.6,14.4
		l0.3,1.2C691.9,397.4,692.1,397.9,692.3,398.3z M668.1,385h1h5.8c-0.2-1.9-0.4-3.4-0.6-4.3l-0.9-4.2c-1-4.3-1.5-6.5-1.5-6.6
		c0-0.1-0.1-0.2-0.1-0.2c0-0.1,0-0.1-0.1-0.1c0,0-0.1-0.1-0.1-0.1c0,0,0-0.1-0.1-0.1c0,0-0.1-0.1-0.1-0.1c-0.2-0.2-0.4-0.4-0.7-0.5
		c-0.4,0.1-1.8,5-3.9,14.7l-0.3,1.6H668.1z"/>
	<path class="st1" d="M709.5,378.6c0.2-2.9,0.9-5.7,2-8.4c1.6-3.4,4.3-6.2,7.8-7.7c3.2-1.4,6.6-2,10-2c6.1,0,10.5,1.7,13.3,5
		c1.7,2.1,2.7,4.7,2.9,7.4l0.2,2.3c-0.3,0.3-2,0.4-5.2,0.4l-3.9,0h-0.3h-2.1h-0.6h-0.5c-0.5,0-0.8-0.7-1-2c-0.1-1-0.5-1.9-1.1-2.6
		c-0.5-0.4-1-0.7-1.7-0.6c-0.6,0-1.1,0.1-1.7,0.3c-0.4,0.2-0.8,0.5-1.2,0.8c-0.4,0.4-0.6,0.8-0.8,1.4c-0.4,1-0.6,2.1-0.7,3.2
		c-0.1,1.1-0.1,2.4-0.1,3.8v0.6l-0.1,2.5c0,4.5,1.3,6.8,3.8,6.9c0.5,0,1-0.1,1.4-0.4c0.9-1.1,1.6-2.3,1.8-3.7c0.1-0.3,0.2-0.7,0.4-1
		h0.9h1.1h4h1.2h2.3h1.4h1.4h1c0.2,0,0.3,0.2,0.4,0.5l-0.1,0.8c-0.1,1.8-0.6,3.6-1.3,5.2c-1.4,2.8-3.7,5.1-6.5,6.4
		c-3.1,1.4-6.4,2.1-9.8,2.1c-6.2,0-10.9-1.8-14-5.5C711.2,390.5,709.6,385.3,709.5,378.6z"/>
	<path class="st1" d="M747.2,379.7l0-0.5c0.2-1.8,0.4-3.6,0.8-5.4c0.3-1.5,0.9-3,1.6-4.4c1.7-3,4.2-5.3,7.3-6.9
		c3.1-1.6,6.6-2.4,10.1-2.3c3.4,0,6.8,0.7,9.8,2.2c1.6,0.7,3,1.9,4.1,3.3c1.7,1.9,2.9,4.2,3.8,6.6c0.6,2.3,0.9,4.6,0.9,6.9
		c0,5.8-1.2,10.3-3.6,13.3l-1.1,1.5c-1.7,1.9-4,3.3-6.4,4.1c-2.6,0.9-5.4,1.4-8.2,1.5c-4.7,0-8.5-1-11.5-2.9
		C749.7,393.3,747.2,387.6,747.2,379.7z M761.2,379.5v0.1v0.1c-0.1,0.8-0.1,1.5-0.1,2.3c0,0.9,0.1,1.8,0.2,2.7
		c0.1,1,0.4,1.9,0.7,2.8c0.3,0.9,0.8,1.7,1.5,2.3c0.7,0.6,1.5,0.9,2.4,0.9c0.8,0,1.5-0.1,2.2-0.4c0.6-0.2,1.1-0.6,1.5-1
		c0.5-0.5,0.8-1,1.1-1.6c0.8-1.8,1.2-4.5,1.2-8.2s-0.4-6.5-1.3-8c-0.8-1.5-2.3-2.4-4-2.3c-0.8,0-1.6,0.2-2.3,0.6
		c-0.6,0.3-1.1,0.8-1.5,1.3c-0.5,0.9-0.8,1.9-1,2.9c-0.3,1.3-0.5,2.7-0.5,4.1L761.2,379.5z"/>
	<path class="st1" d="M817.5,388.7c-0.1,0.5-0.2,1-0.2,1.5v0.6c0,0.6,0,1.2,0.2,1.9c0,2.5,0,4.4,0,5.7c-0.1,0.4-8.1,0.6-24.1,0.6
		c-0.7,0-1.9,0-3.6,0c-0.3-0.8-0.5-1.6-0.4-2.4v-1.6v-5.5v-4.6V380v-7.4c0-1.4,0-2.6,0-3.9v-0.3l-0.1-3.5c-0.1-1.4,0.1-2.7,0.5-4
		c0.3,0,0.8,0,1.3,0h1.2l4.1,0c4.7,0,7.2,0.3,7.7,0.9l-0.2,8.5l-0.1,7.1v0.3l-0.1,10.2l1,0.6c3-0.2,5.8-0.3,8.6-0.3
		C816.1,388.2,817.5,388.4,817.5,388.7z"/>
	<path class="st1" d="M829.9,361.1l4.6-0.1c8,0,13.6,1.3,16.8,4c0.9,0.7,1.6,1.6,2.2,2.5c2.3,3.3,3.5,7.3,3.5,11.4
		c0,7.4-2.5,12.9-7.6,16.4c-3.1,2.1-6.7,3.3-10.5,3.2l-0.1,0.1h-0.6l-6.5-0.1c-2.9,0-6.6,0.1-11.1,0.2c-0.3-0.6-0.5-1.4-0.5-2.1
		v-0.9v-3.8v-5.4v-8.9c0-2,0-3.6,0-4.6v-4v-0.6v-7c0-0.1,0.9-0.2,2.7-0.3s3.2-0.1,4.2-0.1L829.9,361.1z M840.3,369.6
		c-0.9-0.7-2-1-3.1-1.1l-1.6,0h-1.5c-0.2,0.3-0.4,0.7-0.6,1l-0.4,0.9v1.4c0,2.8,0.1,6.6,0.2,11.5l0.2,7.1c0.1,0.5,0.5,0.9,1,0.9
		c1.3,0,2.6-0.1,3.9-0.3c3.2-1.2,4.8-5.1,4.8-11.7C843.1,374,842.2,370.9,840.3,369.6L840.3,369.6z"/>
	<path class="st1" d="M877.8,370.8v-0.5v-1.5c0-2.1,0-4.5,0.1-7.2l0,0l1.3-0.1c4.2-0.2,7-0.3,8.3-0.4h11.4c3.4-0.1,6.8,0.7,9.7,2.4
		c1,0.9,1.7,1.9,2.2,3.1c0.6,1.4,0.9,2.9,0.9,4.5c0,3.2-2.2,5.9-6.5,8.2c2.1,0.5,4.1,1.6,5.6,3.2c1.3,1.5,2,3.4,1.9,5.4
		c0.1,3.6-1.9,6.9-5.1,8.6c-2.9,1.6-6.2,2.3-9.5,2.2l-7.3-0.1c-3.1,0-7.3,0.1-12.5,0.2c-0.5-1-0.7-4.8-0.7-11.4
		C877.7,380.8,877.7,375.3,877.8,370.8z M898.2,374.9c0.3-0.7,0.5-1.5,0.5-2.2c0.2-1.4-0.6-2.8-1.8-3.4c-1.2-0.6-2.5-0.9-3.8-0.9
		c-1.3,0-2,0.5-2,1.5c0,1.7,0,3.5,0.1,5.3v1.3c0,0.6,0.5,1.1,1.1,1.1l1.2-0.1C895.9,377.1,897.5,376.3,898.2,374.9z M892.9,391.2
		c4.2,0,6.3-1.5,6.3-4.4c0-1.9-0.6-3.1-1.7-3.8c-1.5-0.6-3.1-1-4.7-0.9h-0.7l-0.4,1.4c-0.1,1.7-0.2,3.3-0.2,5s0.2,2.5,0.5,2.8H892.9
		z"/>
	<path class="st1" d="M916.2,367.8l-0.1-6.4c0.1,0,0.1,0,0.2,0.1c12.4-0.2,21.7-0.3,28-0.3c0.1,0,0.1,0.1,0.1,0.1v6.9
		c0,0.7,0,1.2,0,1.6c-0.1,0.3-0.6,0.4-1.5,0.4h-0.2c-3.9,0-8-0.1-12.3-0.2c0,0.1,0,0.4-0.1,0.8c0,0.4-0.1,0.6-0.1,0.8l-0.1,0.9
		c-0.1,0.6-0.1,1.7-0.2,3.2l7.6-0.2c1.3,0,2.2,0,2.8,0h0.4c0.7,0,1.3,0,2,0.1c0.3,0.1,0.5,0.2,0.5,0.5v0.2v0.6l0.1,6.3l0,0l0,0
		c-5,0.2-8.9,0.4-11.9,0.4h-1.2v5.9l13.1-0.4c0.5-0.1,1,0,1.4,0.3c0,0.4,0,1,0,1.8l0.2,6.6c0.1,0.3-0.2,0.7-0.5,0.7c0,0,0,0,0,0
		l-8.1-0.1c-1.6,0-4.8,0.1-9.5,0.2l-4,0.1c-2.8,0.1-4.9,0.1-6.3,0.1h-0.1l0,0l-0.5-0.5v-0.9l0.2-26.1L916.2,367.8z"/>
	<path class="st1" d="M986.8,398.3c0,0.2-0.5,0.3-1.3,0.3h-2.2h-1.5h-1.5h-2.4c-2.4,0-4.3-0.1-5.9-0.2c-2.4-0.2-0.1-0.1-0.2-0.3
		l-0.1-0.5c-0.1-1.7-0.5-3.3-1.2-4.9l-10.5,0.1c-0.1,0.3-0.3,1.1-0.6,2.5s-0.6,2.4-0.8,3.1c-0.7,0.2-1.5,0.3-2.3,0.2h-0.6h-1.4
		l-6.3,0.1h-0.7h-0.7h-1.7c-0.1-0.1-0.2-0.3-0.4-0.4c1.6-5.6,3.8-12.6,6.6-21l0.6-1.7l0,0l0.7-2c0.2-0.7,0.8-2.5,1.8-5.4
		s1.6-4.9,1.9-5.7c0.1-0.5,0.3-0.9,0.5-1.3h4l8.7-0.1l2.3,0.1l1.9-0.1c1,0,1.5,0.2,1.5,0.6c1.6,4.5,3.8,11.1,6.5,19.6
		c2.7,8.5,4.2,13.3,4.6,14.4l0.3,1.2C986.4,397.4,986.5,397.9,986.8,398.3z M962.6,385h1h5.8c-0.2-1.9-0.4-3.4-0.6-4.3l-0.9-4.2
		c-1-4.3-1.5-6.5-1.5-6.6l-0.1-0.2c0-0.1,0-0.1-0.1-0.1l-0.1-0.1c0,0,0-0.1-0.1-0.1l-0.1-0.1c-0.2-0.2-0.4-0.4-0.7-0.5
		c-0.4,0.1-1.7,5-3.9,14.7l-0.3,1.6H962.6z"/>
	<path class="st1" d="M999,361.3l7.8-0.1c1.7,0,3.2,0,4.5,0.1c3.6,0.1,6.4,1,8.3,2.6c1.9,1.7,3,4.2,2.8,6.8c0.1,1.9-0.6,3.7-1.8,5.2
		c-1.4,1.6-3.2,2.9-5.2,3.8c3.6,1.1,5.8,3.9,6.6,8.3c0.2,1,0.3,2.1,0.4,3.3s0.2,2.1,0.2,2.5l0.2,1.2c0.3,1.5,0.5,2.5,0.7,3.2
		l-0.1,0.1c-2.8,0.2-5.3,0.3-7.6,0.3c-2.3,0-4.3,0-6.1-0.1h-0.2c-0.5,0-1-2.4-1.6-7.2l-0.1-1c-0.1-1.8-0.4-3-0.9-3.6
		c-0.8-0.7-1.9-1-2.9-0.9h-0.3h-1.3v7.4v0.8v4.5c0,0.2-0.2,0.3-0.4,0.3c-1.8,0.1-4.3,0.1-7.6,0.1s-5.4,0-6.5,0H988l0,0
		c-0.1,0-0.1,0-0.1-0.1v-2.2v-0.7l0.1-10.1v-1.8V382v-6.3v-0.8l-0.1-5.5l0.1-7.8c0-0.1,0.5-0.2,1.4-0.2h1.6h1.5h3.1L999,361.3z
		 M1008,369.3c-1.2-0.5-2.6-0.7-3.9-0.6h-1.4c-0.2,0.3-0.3,1.6-0.3,4.1s0,4.1,0.1,5c5.1-0.1,7.6-1.9,7.6-5.3
		C1010.2,371.1,1009.3,369.8,1008,369.3L1008,369.3z M1023.7,398.3L1023.7,398.3L1023.7,398.3z M1023.8,398.2l-0.1,0.1v0
		C1023.7,398.3,1023.7,398.2,1023.8,398.2L1023.8,398.2z"/>
</g>
</svg>
